<svg xmlns="http://www.w3.org/2000/svg" viewBox="0 0 13 14.489">
  <defs>
    <style>
      .cls-1 {
        fill: #fff;
      }
    </style>
  </defs>
  <path id="Path_9156" data-name="Path 9156" class="cls-1" d="M8.489,4.182c-1.14.6-2.273,1.176-3.392,1.778a.341.341,0,0,0-.1.3A2.85,2.85,0,0,1,4.99,8.09a.337.337,0,0,0,.122.294c1.061.566,2.137,1.126,3.212,1.664a.406.406,0,0,0,.351-.086A2.526,2.526,0,0,1,11.845,9.7a2.552,2.552,0,0,1,1.047,2.947,2.564,2.564,0,0,1-4.969-1.2c.1-.566.1-.566-.423-.832-.946-.488-1.893-.961-2.839-1.456a.39.39,0,0,0-.48.036,2.531,2.531,0,0,1-3.062.086,2.558,2.558,0,0,1-.975-2.89A2.6,2.6,0,0,1,2.7,4.613a2.268,2.268,0,0,1,1.441.552.393.393,0,0,0,.509.05q1.527-.8,3.062-1.563a.381.381,0,0,0,.244-.523A2.621,2.621,0,0,1,9.694.031a2.565,2.565,0,1,1,.294,4.976A2.736,2.736,0,0,1,8.489,4.182ZM2.574,5.48a1.717,1.717,0,0,0,0,3.435A1.751,1.751,0,0,0,4.3,7.173,1.7,1.7,0,0,0,2.574,5.48Zm6.145,6.339a1.748,1.748,0,0,0,1.714,1.721,1.769,1.769,0,0,0,1.728-1.714,1.721,1.721,0,1,0-3.442-.007Zm1.7-7.55A1.707,1.707,0,0,0,10.511.855a1.708,1.708,0,1,0-.093,3.413Z" transform="translate(-0.015 0.083)"/>
</svg>
