<svg id="pinterest-social-logo" xmlns="http://www.w3.org/2000/svg" viewBox="0 0 27.381 27.381">
  <defs>
    <style>
      .cls-1 {
        fill: #bd091d;
      }
    </style>
  </defs>
  <path id="Path_9161" data-name="Path 9161" class="cls-1" d="M13.69,0a13.69,13.69,0,1,0,13.69,13.69A13.69,13.69,0,0,0,13.69,0Zm1.575,18.238A3.363,3.363,0,0,1,12.4,16.776s-.681,2.7-.824,3.223a12.493,12.493,0,0,1-2.118,3.838.156.156,0,0,1-.278-.067,13.161,13.161,0,0,1,.036-4.456c.224-.952,1.508-6.39,1.508-6.39a4.515,4.515,0,0,1-.374-1.856c0-1.738,1.007-3.036,2.262-3.036a1.57,1.57,0,0,1,1.581,1.761,25.193,25.193,0,0,1-1.034,4.161,1.815,1.815,0,0,0,1.85,2.259c2.222,0,3.718-2.854,3.718-6.236,0-2.57-1.73-4.494-4.879-4.494A5.555,5.555,0,0,0,8.072,11.1a3.382,3.382,0,0,0,.774,2.3.569.569,0,0,1,.169.653c-.057.216-.185.735-.239.941a.4.4,0,0,1-.588.294c-1.638-.669-2.4-2.463-2.4-4.48,0-3.331,2.809-7.326,8.381-7.326,4.478,0,7.425,3.24,7.425,6.718C21.593,14.8,19.035,18.238,15.266,18.238Z"/>
</svg>
