<svg id="twitter-social-logotype" xmlns="http://www.w3.org/2000/svg" viewBox="0 0 27.381 27.381">
  <defs>
    <style>
      .cls-1 {
        fill: #059ff5;
      }
    </style>
  </defs>
  <path id="Path_9162" data-name="Path 9162" class="cls-1" d="M13.69,0a13.69,13.69,0,1,0,13.69,13.69A13.69,13.69,0,0,0,13.69,0Zm8.279,10.039q.01.242.01.486a11.782,11.782,0,0,1-11.9,11.9,11.85,11.85,0,0,1-6.41-1.879.1.1,0,0,1-.041-.12.1.1,0,0,1,.107-.066,8.277,8.277,0,0,0,.977.057,8.164,8.164,0,0,0,4.866-1.587,4.246,4.246,0,0,1-3.687-2.935.1.1,0,0,1,.115-.131,4.076,4.076,0,0,0,1.412.02,4.261,4.261,0,0,1-2.985-4.057v-.054a.1.1,0,0,1,.051-.086.1.1,0,0,1,.1,0,4.06,4.06,0,0,0,1.482.479A4.251,4.251,0,0,1,5.046,6.607a.1.1,0,0,1,.08-.05.1.1,0,0,1,.087.037,11.711,11.711,0,0,0,8.339,4.287,4.3,4.3,0,0,1-.082-.836A4.249,4.249,0,0,1,20.778,7.1a8.188,8.188,0,0,0,2.546-.983.1.1,0,0,1,.148.118,4.241,4.241,0,0,1-1.493,2.1,8.165,8.165,0,0,0,1.913-.58.1.1,0,0,1,.125.149A8.465,8.465,0,0,1,21.969,10.039Z"/>
</svg>
