<svg id="linkedin-logo" xmlns="http://www.w3.org/2000/svg" viewBox="0 0 27.381 27.381">
  <defs>
    <style>
      .cls-1 {
        fill: #0077b5;
      }
    </style>
  </defs>
  <path id="Path_9160" data-name="Path 9160" class="cls-1" d="M13.69,0a13.69,13.69,0,1,0,13.69,13.69A13.69,13.69,0,0,0,13.69,0ZM8.561,22.959H4.712V10.576H8.561ZM6.637,8.884a2.231,2.231,0,1,1,2.23-2.232A2.232,2.232,0,0,1,6.637,8.884ZM22.975,22.959H19.13V16.937c0-1.436-.027-3.283-2-3.283-2,0-2.309,1.564-2.309,3.179v6.126H10.974V10.576h3.691v1.692h.052a4.044,4.044,0,0,1,3.641-2c3.9,0,4.616,2.565,4.616,5.9v6.792Z"/>
</svg>
