<svg xmlns="http://www.w3.org/2000/svg" xmlns:xlink="http://www.w3.org/1999/xlink" viewBox="0 0 200 200">
  <defs>
    <style>
      .cls-1 {
        clip-path: url(#clip-Centre_viz);
      }

      .cls-2 {
        fill: #004439;
      }

      .cls-3 {
        fill: #014b40;
      }

      .cls-4 {
        fill: #015347;
      }

      .cls-5 {
        fill: #045a4d;
      }

      .cls-6, .cls-7, .cls-9 {
        fill: none;
      }

      .cls-7 {
        stroke: #fff;
        stroke-miterlimit: 10;
      }

      .cls-8 {
        fill: #fff;
      }

      .cls-9 {
        stroke: #f4f7ef;
        stroke-width: 13px;
      }

      .cls-10 {
        fill: #231f20;
      }

      .cls-11 {
        stroke: none;
      }
    </style>
    <clipPath id="clip-Centre_viz">
      <rect width="200" height="200"/>
    </clipPath>
  </defs>
  <g id="Centre_viz" data-name="Centre viz" class="cls-1">
    <g id="Group_4368" data-name="Group 4368" transform="translate(66 69)">
      <circle id="Ellipse_13" data-name="Ellipse 13" class="cls-2" cx="34.9" cy="34.9" r="34.9" transform="translate(0 0)"/>
      <circle id="Ellipse_14" data-name="Ellipse 14" class="cls-3" cx="24.9" cy="24.9" r="24.9" transform="translate(10 10)"/>
      <circle id="Ellipse_15" data-name="Ellipse 15" class="cls-4" cx="14.9" cy="14.9" r="14.9" transform="translate(20 20)"/>
      <circle id="Ellipse_16" data-name="Ellipse 16" class="cls-5" cx="5" cy="5" r="5" transform="translate(29.9 29.9)"/>
    </g>
    <g id="Group_4369" data-name="Group 4369" transform="translate(124.453 7.581) rotate(52)">
      <g id="Group_1424" data-name="Group 1424" transform="translate(62.433 127.79)">
        <path id="Path_616" data-name="Path 616" class="cls-6" d="M45.4,97.1" transform="translate(-45.4 -97.1)"/>
      </g>
      <path id="SVGID_x5F_1_x5F_" class="cls-6" d="M12.377,40.328A62.5,62.5,0,1,1,0,77.733,59.79,59.79,0,0,1,3.025,58.618" transform="translate(0 0)"/>
      <g id="Group_1427" data-name="Group 1427" transform="translate(4.263 24.376)">
        <g id="Group_1426" data-name="Group 1426">
          <path id="Path_617" data-name="Path 617" class="cls-7" d="M16.889,43.078A52.738,52.738,0,1,1,6.3,74.57,53.8,53.8,0,0,1,8.363,59.718" transform="translate(-1.899 -21.9)"/>
          <g id="Group_1425" data-name="Group 1425" transform="translate(0 36.58)">
            <path id="Path_618" data-name="Path 618" class="cls-8" d="M13.964,55.788l-1.238.55L9.563,50.425,3.925,54,3.1,52.9l7.013-4.4Z" transform="translate(-3.1 -48.5)"/>
          </g>
        </g>
      </g>
    </g>
    <g id="Group_4371" data-name="Group 4371" transform="translate(-202 -154)">
      <g id="Ellipse_65641" data-name="Ellipse 65641" class="cls-9" transform="translate(208 161)">
        <ellipse class="cls-11" cx="94.5" cy="93.5" rx="94.5" ry="93.5"/>
        <ellipse class="cls-6" cx="94.5" cy="93.5" rx="88" ry="87"/>
      </g>
      <g id="Group_4370" data-name="Group 4370" transform="translate(210.962 167.558)">
        <g id="Group_4347" data-name="Group 4347" transform="translate(90.578 -0.06)">
          <g id="Group_4345" data-name="Group 4345" transform="translate(0 87.564)">
            <path id="Path_9164" data-name="Path 9164" class="cls-10" d="M118.4,114.4" transform="translate(-118.4 -114.4)"/>
          </g>
          <g id="Group_4346" data-name="Group 4346" transform="translate(26.517)">
            <path id="Path_9165" data-name="Path 9165" class="cls-10" d="M158.982,4.806a3.4,3.4,0,0,1-.995,1.607,2.484,2.484,0,0,1-1.377.765A2.906,2.906,0,0,1,155,7.024a3.324,3.324,0,0,1-1.3-.918,3.08,3.08,0,0,1-.612-1.53,3.814,3.814,0,0,1,.23-1.836l.153-.383a3.4,3.4,0,0,1,.995-1.607,2.768,2.768,0,0,1,1.377-.765,2.968,2.968,0,0,1,1.607.153,3.324,3.324,0,0,1,1.3.918,3.081,3.081,0,0,1,.612,1.53,3.13,3.13,0,0,1-.306,1.836Zm-1.071-.765a3.34,3.34,0,0,0,.23-1.836,1.32,1.32,0,0,0-.995-.995,1.438,1.438,0,0,0-1.377.153,3.411,3.411,0,0,0-1.071,1.53l-.153.306a3.415,3.415,0,0,0-.153,1.913,1.549,1.549,0,0,0,.995,1.071,1.438,1.438,0,0,0,1.377-.153,3.284,3.284,0,0,0,1.071-1.607Z" transform="translate(-153.062 0.06)"/>
            <path id="Path_9166" data-name="Path 9166" class="cls-10" d="M163.043,9.848a.926.926,0,0,0,.765.077.809.809,0,0,0,.536-.459l1.071.459a1.5,1.5,0,0,1-.689.689,2.17,2.17,0,0,1-.995.306,2.443,2.443,0,0,1-1.071-.23,2.1,2.1,0,0,1-1.3-1.377,2.531,2.531,0,0,1,.23-2.066l.076-.077a2.737,2.737,0,0,1,1.377-1.53,2.118,2.118,0,0,1,1.913.077,2.024,2.024,0,0,1,1.224,1.148,1.958,1.958,0,0,1,0,1.607l-1.071-.459a1.072,1.072,0,0,0,0-.842.924.924,0,0,0-.536-.536,1.132,1.132,0,0,0-.995,0,2.1,2.1,0,0,0-.842,1.071l-.153.077a2.219,2.219,0,0,0-.23,1.3A1.128,1.128,0,0,0,163.043,9.848Z" transform="translate(-154.982 -1.234)"/>
            <path id="Path_9167" data-name="Path 9167" class="cls-10" d="M171.188,6.859l-.612,1.148.842.459-.382.765-.842-.459-1.3,2.678a.506.506,0,0,0-.077.459c0,.153.153.23.306.306s.23.076.383.153l-.383.842c-.306-.077-.535-.153-.765-.23-.842-.383-.995-1.071-.536-1.989L169.2,8.313l-.765-.383.382-.765.765.383.612-1.148Z" transform="translate(-156.471 -1.458)"/>
            <path id="Path_9168" data-name="Path 9168" class="cls-10" d="M178.666,9.2l.306.612a2.544,2.544,0,0,0-1.071.918l-.383.612-.918-.536.306-.612a2.17,2.17,0,0,1,.689-.765A5.36,5.36,0,0,1,178.666,9.2Z" transform="translate(-158.593 -2.116)"/>
            <path id="Path_9169" data-name="Path 9169" class="cls-10" d="M178.995,18.909,178,18.3l3.137-4.9-1.836-.459.536-.842,2.907.612.153.077Z" transform="translate(-158.922 -2.798)"/>
            <path id="Path_9170" data-name="Path 9170" class="cls-10" d="M189.691,18.419l-6.2,3.519-.994-.765,5.967-3.29-2.984-2.219.536-.765L190,17.807Z" transform="translate(-159.98 -3.455)"/>
          </g>
        </g>
        <g id="Group_4350" data-name="Group 4350" transform="translate(27.923 3.481)">
          <g id="Group_4348" data-name="Group 4348" transform="translate(64.338 86.395)">
            <path id="Path_9171" data-name="Path 9171" class="cls-10" d="M120.6,117.5" transform="translate(-120.6 -117.5)"/>
          </g>
          <g id="Group_4349" data-name="Group 4349">
            <path id="Path_9172" data-name="Path 9172" class="cls-10" d="M37.724,25.725l5.2,2.754-2.066-5.508L42.085,21.9l4.743,5.355-.995.842-1.53-1.76-1.989-2.448,2.066,5.585-.689.612-5.279-2.831,2.219,2.3,1.53,1.76-.918.842L36.5,26.8Z" transform="translate(-36.5 -8.641)"/>
            <path id="Path_9173" data-name="Path 9173" class="cls-10" d="M53.026,24.161c-.077-.077-.23-.153-.383-.306a1.785,1.785,0,0,1-.765,1.3,1.733,1.733,0,0,1-1.3.383,1.407,1.407,0,0,1-1.071-.612,1.669,1.669,0,0,1-.306-1.454,2.859,2.859,0,0,1,1.148-1.454l.612-.459-.23-.306a.78.78,0,0,0-.612-.383.654.654,0,0,0-.689.23.792.792,0,0,0-.383.536.863.863,0,0,0,.077.612l-.995.689A1.542,1.542,0,0,1,47.9,22.1a1.47,1.47,0,0,1,.306-.918,4.01,4.01,0,0,1,.765-.842,2.446,2.446,0,0,1,1.454-.536,1.685,1.685,0,0,1,1.224.689L53.1,22.4c.306.383.536.689.842.765l.076.076Zm-1.607.077a3.327,3.327,0,0,0,.459-.536,1.08,1.08,0,0,0,.077-.689l-.612-.765-.536.383a1.562,1.562,0,0,0-.689.765.585.585,0,0,0,.153.689.774.774,0,0,0,.536.306A.635.635,0,0,0,51.419,24.237Z" transform="translate(-39.179 -8.148)"/>
            <path id="Path_9174" data-name="Path 9174" class="cls-10" d="M55.907,16.942l-.459.229a1.073,1.073,0,0,0-.536,1.148l2.066,3.06-.995.689L53,17.63l.918-.612.383.459a1.242,1.242,0,0,1,.612-1.224A1.293,1.293,0,0,1,55.3,16.1Z" transform="translate(-40.377 -7.278)"/>
            <path id="Path_9175" data-name="Path 9175" class="cls-10" d="M59.244,10.5h.689a2.62,2.62,0,0,0,.306,1.377l.383.612-.918.536-.306-.612a3.787,3.787,0,0,1-.306-.995A1.317,1.317,0,0,1,59.244,10.5Z" transform="translate(-41.801 -5.962)"/>
            <path id="Path_9176" data-name="Path 9176" class="cls-10" d="M67.832,14.35l-.995.536L64.16,9.76l-1.3,1.377L62.4,10.3l1.989-2.219L64.466,8Z" transform="translate(-42.586 -5.375)"/>
            <path id="Path_9177" data-name="Path 9177" class="cls-10" d="M73.6,5.817a2.1,2.1,0,0,1,.153.995,2.357,2.357,0,0,1-.383.918,1.756,1.756,0,0,1,1.071.306,1.87,1.87,0,0,1,.689.842,1.952,1.952,0,0,1,0,1.607,2.9,2.9,0,0,1-1.3,1.224,2.164,2.164,0,0,1-2.984-.918,2.342,2.342,0,0,1-.23-1.148,2.371,2.371,0,0,1,.459-.995,1.64,1.64,0,0,1-.918-.306,1.528,1.528,0,0,1-.612-.765,2.328,2.328,0,0,1-.076-1.607,2.57,2.57,0,0,1,1.224-1.148,2.194,2.194,0,0,1,1.683-.153A1.837,1.837,0,0,1,73.6,5.817Zm-1.071.536a1.417,1.417,0,0,0-.536-.612,1.3,1.3,0,0,0-.765,0,.915.915,0,0,0-.536.536,1.108,1.108,0,0,0,.077.842c.153.306.306.536.536.612a1.3,1.3,0,0,0,.765,0,.915.915,0,0,0,.536-.536A1.084,1.084,0,0,0,72.527,6.352Zm1.454,2.831a1.806,1.806,0,0,0-.612-.689,1.279,1.279,0,0,0-.918.077,1.185,1.185,0,0,0-.612.612,1.279,1.279,0,0,0,.076.918,1.185,1.185,0,0,0,.612.612,1.279,1.279,0,0,0,.918-.077,1.185,1.185,0,0,0,.612-.612A1.124,1.124,0,0,0,73.981,9.183Z" transform="translate(-44.222 -4.569)"/>
          </g>
        </g>
        <g id="Group_4353" data-name="Group 4353" transform="translate(0 74.346)">
          <g id="Group_4351" data-name="Group 4351" transform="translate(89.66 13.005)">
            <path id="Path_9178" data-name="Path 9178" class="cls-10" d="M117.2,114.2" transform="translate(-117.2 -114.2)"/>
          </g>
          <g id="Group_4352" data-name="Group 4352">
            <path id="Path_9179" data-name="Path 9179" class="cls-10" d="M3.8,101.637l.383-2.831L1.2,98.424,1.353,97.2l7.115.918-.536,4.514-1.071-.23.383-3.29L5.1,98.883l-.383,2.831Z" transform="translate(-0.282 -97.2)"/>
            <path id="Path_9180" data-name="Path 9180" class="cls-10" d="M.2,106.848a2.6,2.6,0,0,1,.842-1.836,2.743,2.743,0,0,1,1.913-.612h.153a2.681,2.681,0,0,1,2.3,1.3,2.422,2.422,0,0,1,.306,1.224,2.155,2.155,0,0,1-.765,1.607,2.681,2.681,0,0,1-1.989.459H2.5l.23-3.443a1.658,1.658,0,0,0-1.071.382,1.334,1.334,0,0,0-.459.918,1.661,1.661,0,0,0,.612,1.377l-.689.612a2.089,2.089,0,0,1-.689-.918A2.443,2.443,0,0,1,.2,106.848ZM4.79,107a1.15,1.15,0,0,0-.306-.842,1.745,1.745,0,0,0-.918-.459L3.413,108H3.49a1.631,1.631,0,0,0,.918-.23A1.458,1.458,0,0,0,4.79,107Z" transform="translate(-0.047 -98.892)"/>
            <path id="Path_9181" data-name="Path 9181" class="cls-10" d="M2.754,116.667a3.22,3.22,0,0,1-1.989-.536A1.883,1.883,0,0,1,0,114.6a1.68,1.68,0,0,1,.689-1.454l-.612-.077V112H7.65v1.224H4.9a1.791,1.791,0,0,1,.612,1.377,1.926,1.926,0,0,1-.689,1.53,3.707,3.707,0,0,1-2.066.536Zm.077-1.224a2.046,2.046,0,0,0,1.3-.306,1.091,1.091,0,0,0,.459-.918,1.021,1.021,0,0,0-.689-1.071H1.683a1.154,1.154,0,0,0-.689,1.071.879.879,0,0,0,.459.842,2.046,2.046,0,0,0,1.3.306Z" transform="translate(0 -100.678)"/>
            <path id="Path_9182" data-name="Path 9182" class="cls-10" d="M9.725,123.042l-.306.612a3.117,3.117,0,0,0-1.377-.383l-.765.076L7.2,122.277l.689-.077a4.478,4.478,0,0,1,.995.153A2.7,2.7,0,0,1,9.725,123.042Z" transform="translate(-1.692 -103.075)"/>
            <path id="Path_9183" data-name="Path 9183" class="cls-10" d="M1.153,129.172,1,128.025l5.738-.689L5.9,125.653l.995-.153,1.377,2.678v.153Z" transform="translate(-0.235 -103.85)"/>
            <path id="Path_9184" data-name="Path 9184" class="cls-10" d="M7.838,137.019a2.118,2.118,0,0,1-.995-.077,1.446,1.446,0,0,1-.765-.612,2.088,2.088,0,0,1-.536.995,2.085,2.085,0,0,1-.918.459,1.738,1.738,0,0,1-1.607-.383,2.212,2.212,0,0,1-.842-1.607,2.246,2.246,0,0,1,.23-1.76,2.228,2.228,0,0,1,1.377-.918,2.456,2.456,0,0,1,1.071.077,2.392,2.392,0,0,1,.842.688,1.455,1.455,0,0,1,.536-.842,1.824,1.824,0,0,1,.842-.459,1.726,1.726,0,0,1,1.53.306,2.726,2.726,0,0,1,.842,1.454,2.061,2.061,0,0,1-.23,1.683A1.794,1.794,0,0,1,7.838,137.019ZM4.4,136.636a1.1,1.1,0,0,0,.765-.459,1.186,1.186,0,0,0,.153-.918,1.1,1.1,0,0,0-.459-.765,1.186,1.186,0,0,0-.918-.153,1.1,1.1,0,0,0-.765.459,1.186,1.186,0,0,0-.153.918,1.1,1.1,0,0,0,.459.765A1.317,1.317,0,0,0,4.4,136.636Zm3.137-.765a1.479,1.479,0,0,0,.689-.383.89.89,0,0,0,.153-.765,1.479,1.479,0,0,0-.383-.689,1.053,1.053,0,0,0-.842-.077,1.479,1.479,0,0,0-.689.383.89.89,0,0,0-.153.765,1.114,1.114,0,0,0,.459.688A1.259,1.259,0,0,0,7.532,135.871Z" transform="translate(-0.493 -105.5)"/>
          </g>
        </g>
        <g id="Group_4356" data-name="Group 4356" transform="translate(34.177 87.275)">
          <g id="Group_4354" data-name="Group 4354" transform="translate(55.33)">
            <path id="Path_9185" data-name="Path 9185" class="cls-10" d="M117,114.1" transform="translate(-117 -114.1)"/>
          </g>
          <g id="Group_4355" data-name="Group 4355" transform="translate(0 66.251)">
            <path id="Path_9186" data-name="Path 9186" class="cls-10" d="M51.044,200.7l.995.765-3.06,4.055a2.169,2.169,0,0,1-1.53.918,2.342,2.342,0,0,1-1.683-.535,2.587,2.587,0,0,1-1.071-1.53,2.185,2.185,0,0,1,.459-1.607l.995.765a1.424,1.424,0,0,0-.306.842,1.019,1.019,0,0,0,.459.689.863.863,0,0,0,.842.23,1.294,1.294,0,0,0,.765-.536Z" transform="translate(-44.675 -200.7)"/>
            <path id="Path_9187" data-name="Path 9187" class="cls-10" d="M53.105,210.851a1.586,1.586,0,0,1,.153-.459,2.11,2.11,0,0,1-2.372-1.377,1.4,1.4,0,0,1,.23-1.224,1.787,1.787,0,0,1,1.224-.765,3.05,3.05,0,0,1,1.76.612l.612.383.229-.306a.78.78,0,0,0,.153-.689.717.717,0,0,0-.459-.612,1.234,1.234,0,0,0-.689-.229.774.774,0,0,0-.536.306l-.995-.689a1.666,1.666,0,0,1,.689-.536,2.119,2.119,0,0,1,.995-.077,3.24,3.24,0,0,1,1.071.459,2.175,2.175,0,0,1,.995,1.224,1.709,1.709,0,0,1-.23,1.454l-1.3,1.989a4.088,4.088,0,0,0-.459,1.071l-.077.076Zm-.612-1.454a1.068,1.068,0,0,0,.689.23.824.824,0,0,0,.612-.153l.536-.842-.536-.382a2.039,2.039,0,0,0-.995-.383.681.681,0,0,0-.612.383.6.6,0,0,0-.077.612C52.111,209.092,52.264,209.245,52.493,209.4Z" transform="translate(-46.125 -201.748)"/>
            <path id="Path_9188" data-name="Path 9188" class="cls-10" d="M60.1,208.912l-.306.536a1.863,1.863,0,0,1,1.683.153c.995.536,1.148,1.377.536,2.525l-1.76,3.06-1.071-.612,1.683-2.984a.994.994,0,0,0,.153-.765.915.915,0,0,0-.536-.536,1.312,1.312,0,0,0-1.3,0l-1.913,3.29-1.071-.612,2.678-4.667Z" transform="translate(-47.383 -202.486)"/>
            <path id="Path_9189" data-name="Path 9189" class="cls-10" d="M71.036,211l.383.612a2.487,2.487,0,0,0-.995.995l-.306.688-.918-.459.306-.612a2.17,2.17,0,0,1,.689-.765A1.511,1.511,0,0,1,71.036,211Z" transform="translate(-50.438 -203.12)"/>
            <path id="Path_9190" data-name="Path 9190" class="cls-10" d="M72.671,220.509,71.6,220.05l2.219-5.279-1.836-.153.383-.918,2.984.153.153.077Z" transform="translate(-51.002 -203.755)"/>
            <path id="Path_9191" data-name="Path 9191" class="cls-10" d="M82.524,218.6a1.952,1.952,0,0,1-.535.765,2.554,2.554,0,0,1-.918.383,2.7,2.7,0,0,1,.612.995,1.722,1.722,0,0,1-.077,1.071,1.916,1.916,0,0,1-1.071,1.224,2.332,2.332,0,0,1-1.76,0,2.7,2.7,0,0,1-1.454-1.071,1.957,1.957,0,0,1-.153-1.607,1.438,1.438,0,0,1,.612-.842,1.658,1.658,0,0,1,1.071-.382,1.823,1.823,0,0,1-.459-.842,1.522,1.522,0,0,1,.077-.995,1.625,1.625,0,0,1,1.071-1.148,2.134,2.134,0,0,1,1.683,0,2.221,2.221,0,0,1,1.3.995A2.328,2.328,0,0,1,82.524,218.6Zm-2.066,2.754a1.267,1.267,0,0,0,0-.918,1.35,1.35,0,0,0-.689-.612,1.865,1.865,0,0,0-.918,0,1.806,1.806,0,0,0-.612.689,1.267,1.267,0,0,0,0,.918,1.806,1.806,0,0,0,.689.612,1.267,1.267,0,0,0,.918,0C80.153,221.961,80.306,221.655,80.459,221.349Zm.918-3.137a1.571,1.571,0,0,0,0-.841.874.874,0,0,0-.612-.536,1.3,1.3,0,0,0-.765,0,1.282,1.282,0,0,0-.536.689,1.565,1.565,0,0,0,0,.842c.076.23.306.382.612.536a1.3,1.3,0,0,0,.765,0A1.013,1.013,0,0,0,81.377,218.213Z" transform="translate(-52.287 -204.289)"/>
          </g>
        </g>
        <g id="Group_4360" data-name="Group 4360" transform="translate(89.966 86.892)">
          <g id="Group_4357" data-name="Group 4357">
            <path id="Path_9192" data-name="Path 9192" class="cls-10" d="M117.6,113.6" transform="translate(-117.6 -113.6)"/>
          </g>
          <g id="Group_4359" data-name="Group 4359" transform="translate(30.754 61.431)">
            <g id="Group_4358" data-name="Group 4358">
              <path id="Path_9193" data-name="Path 9193" class="cls-10" d="M160.631,221.727l-2.831-6.579,1.989-.842a4.626,4.626,0,0,1,1.683-.306,3.079,3.079,0,0,1,1.53.689,3.445,3.445,0,0,1,1.071,1.454l.153.306a3.882,3.882,0,0,1,.306,1.836,2.719,2.719,0,0,1-.612,1.53,3.445,3.445,0,0,1-1.454,1.071Zm-1.224-6.2,2.066,4.743.765-.306a1.721,1.721,0,0,0,1.148-1.148,2.679,2.679,0,0,0-.23-1.836L163,216.6a2.871,2.871,0,0,0-1.148-1.454,1.952,1.952,0,0,0-1.607,0Z" transform="translate(-157.8 -198.623)"/>
              <path id="Path_9194" data-name="Path 9194" class="cls-10" d="M171.178,217.732a2.61,2.61,0,0,1-1.989.23,2.941,2.941,0,0,1-1.53-1.377l-.076-.153a3.117,3.117,0,0,1-.383-1.377,2.515,2.515,0,0,1,.306-1.3,1.947,1.947,0,0,1,.918-.842,2.22,2.22,0,0,1,1.836-.153,3.317,3.317,0,0,1,1.454,1.454l.229.459-3.137,1.607a1.982,1.982,0,0,0,.842.765,1.722,1.722,0,0,0,1.071-.077,1.9,1.9,0,0,0,.918-1.224l.842.23a1.922,1.922,0,0,1-.459,1.071C171.943,217.273,171.637,217.5,171.178,217.732Zm-2.142-4.055a.973.973,0,0,0-.536.689,1.522,1.522,0,0,0,.077.995l2.066-1.071-.077-.076a1.948,1.948,0,0,0-.688-.689A1.513,1.513,0,0,0,169.036,213.677Z" transform="translate(-160.009 -198.3)"/>
              <path id="Path_9195" data-name="Path 9195" class="cls-10" d="M177.037,213.436a1.361,1.361,0,0,0,.536-.612.744.744,0,0,0-.077-.689l.995-.536a2.118,2.118,0,0,1,.23.995,2.17,2.17,0,0,1-.306.995,3.627,3.627,0,0,1-.765.765,2.462,2.462,0,0,1-1.913.306,3.4,3.4,0,0,1-1.607-1.377l-.076-.077a3.3,3.3,0,0,1-.459-1.989,2.506,2.506,0,0,1,1.148-1.53,2.059,2.059,0,0,1,1.607-.306,2.281,2.281,0,0,1,1.3.918l-.995.536a1.114,1.114,0,0,0-.689-.459.89.89,0,0,0-.765.153,1.038,1.038,0,0,0-.536.842,2.454,2.454,0,0,0,.383,1.3l.077.153q.459.8.918.918A2.17,2.17,0,0,0,177.037,213.436Z" transform="translate(-161.507 -197.524)"/>
              <path id="Path_9196" data-name="Path 9196" class="cls-10" d="M180.277,202.7h.688a2.642,2.642,0,0,0,.382,1.377l.459.612-.842.612-.382-.536a3,3,0,0,1-.383-.995A4.376,4.376,0,0,1,180.277,202.7Z" transform="translate(-163.064 -195.968)"/>
              <path id="Path_9197" data-name="Path 9197" class="cls-10" d="M189.22,205.438l-.918.689-3.519-4.59-1.071,1.53-.612-.765,1.607-2.525.153-.077Z" transform="translate(-163.745 -195.263)"/>
              <path id="Path_9198" data-name="Path 9198" class="cls-10" d="M191.831,194.359l2.142,6.809-.918.842-1.913-6.579-2.831,2.448-.612-.689,3.749-3.29Z" transform="translate(-164.826 -193.9)"/>
            </g>
          </g>
        </g>
        <g id="Group_4361" data-name="Group 4361" transform="translate(172.741 65.701)">
          <path id="Path_9199" data-name="Path 9199" class="cls-10" d="M226.795,92.862l-.229-1.224L231,87.507l-4.973.995-.23-1.224,7.038-1.377.23,1.224-4.437,4.131,5.049-.995.23,1.224Z" transform="translate(-225.8 -85.9)"/>
          <path id="Path_9200" data-name="Path 9200" class="cls-10" d="M230.119,95.891a3.056,3.056,0,0,1,1.454.153,2.146,2.146,0,0,1,1.071.765,2.4,2.4,0,0,1,.459,1.224,2.565,2.565,0,0,1-.459,1.836,2.353,2.353,0,0,1-1.76.918h-.306a3.056,3.056,0,0,1-1.454-.153,2.146,2.146,0,0,1-1.071-.765,1.876,1.876,0,0,1-.459-1.224,2.383,2.383,0,0,1,.536-1.913,3,3,0,0,1,1.989-.842Zm0,1.224a2.28,2.28,0,0,0-1.224.459,1.175,1.175,0,0,0-.383.995,1.258,1.258,0,0,0,.612.918,2.046,2.046,0,0,0,1.377.153,2.566,2.566,0,0,0,1.224-.459,1.175,1.175,0,0,0,.383-.995,1.1,1.1,0,0,0-.536-.842A1.811,1.811,0,0,0,230.119,97.115Z" transform="translate(-226.217 -88.241)"/>
          <path id="Path_9201" data-name="Path 9201" class="cls-10" d="M229.83,105.4l3.9.918.077,1.224-5.432-1.53-.077-1.071,5.2-2.142.077,1.224Z" transform="translate(-226.387 -89.871)"/>
          <path id="Path_9202" data-name="Path 9202" class="cls-10" d="M237.725,114.318l-.383.612a2.468,2.468,0,0,0-1.377-.459H235.2V113.4h.688a1.852,1.852,0,0,1,.995.306A2.4,2.4,0,0,1,237.725,114.318Z" transform="translate(-228.009 -92.362)"/>
          <path id="Path_9203" data-name="Path 9203" class="cls-10" d="M228.2,119.578l.077-1.224,5.738.306-.535-1.76.995.076.842,2.831v.153Z" transform="translate(-226.364 -93.184)"/>
          <path id="Path_9204" data-name="Path 9204" class="cls-10" d="M233.82,129.273,227.7,125.6l.153-1.224,5.814,3.6.459-3.672.918.153-.612,4.973Z" transform="translate(-226.246 -94.923)"/>
        </g>
      </g>
    </g>
  </g>
</svg>
